<svg xmlns="http://www.w3.org/2000/svg" viewBox="0 0 64 64" width="64" height="64">
  <!-- Znak marki Plażowa Park: pięć sosen nad kreską, ta sama geometria co
       components/Logo.tsx. Kadr ciasny na rysunku, bez marginesów oryginału, bo
       w karcie przeglądarki liczy się każdy piksel. Kreska 8 zamiast 4: przy 32 px
       cieńsza gubi pnie, grubsza je skleja. -->
  <rect width="64" height="64" rx="13" fill="#fdfcfa"/>
  <g transform="translate(5.416 1.406) scale(0.2970)">
    <path d="M54.5 46V195 M72.5 25V195 M89.5 5V195 M106.5 25V195 M124 46V195 M54.5 68.5 72.5 106.5 M124.5 68.5 106.5 106.5 M39 84 54.5 115 M140 84 124.5 115 M54.5 102 72.5 138 M124.5 102 106.5 138 M45 123 54.5 142 M134 123 124.5 142 M54.5 133 72.5 169 M124.5 133 106.5 169 M26 201H153" fill="none" stroke="#12100e" stroke-width="8" stroke-linecap="butt"/>
  </g>
</svg>
